<svg id="b2b91274-dbc7-4a27-a5e2-a5b5d5ef932c" data-name="svg3055" xmlns="http://www.w3.org/2000/svg" viewBox="0 0 324.14 405.39">
  <title>shield2</title>
  <path id="f38f4d8b-3480-434d-9fbb-958481a42045" data-name="path3065" d="M171.44,402.38a308.31,308.31,0,0,1-35.23-17.48C119,374.53,97.82,356.39,84.67,340.72c-24.12-28.75-42.79-70.82-47-106C36.4,224.4,36.3,58.09,37.54,53.79a14.76,14.76,0,0,1,7.3-8.56c2.74-1.42,22.74-4.46,50.85-7.71,34.13-4,45.05-4.51,87.64-4.48,44.1,0,56.91.78,96.45,5.75s41.62,5.48,45.58,11.36l2,2.94V144c0,61.1-.31,92.58-.95,96.1-8,43.84-28.43,83.61-58.46,113.58a218.69,218.69,0,0,1-72.71,47.8C184.12,405.9,180.71,406,171.44,402.38Z" transform="translate(-19.93 -16.31)" style="fill: none;stroke: #000;stroke-width: 33.458152770996094px"/>
</svg>
